<?xml version="1.0" encoding="utf-8"?>
<!DOCTYPE svg PUBLIC "-//W3C//DTD SVG 20010904//EN" "http://www.w3.org/TR/2001/REC-SVG-20010904/DTD/svg10.dtd">
<svg version="1.0" xmlns="http://www.w3.org/2000/svg" width="21px" height="20px" viewBox="0 0 21 20" preserveAspectRatio="xMidYMid meet">
 <g fill="#f4fbfc">
  <path d="M0 10 l0 -10 10.5 0 10.5 0 0 10 0 10 -10.5 0 -10.5 0 0 -10z"/>
 </g>
 <g fill="#9fdfe9">
  <path d="M2.9 17.1 c-4.1 -4.2 -4.1 -10.1 0.1 -14.2 2.6 -2.6 3.6 -3 7.7 -2.7 2.5 0.2 4.8 0.8 5 1.4 0.3 0.8 -1 1 -4.1 0.7 -3.8 -0.5 -4.8 -0.2 -7 2 -3.4 3.4 -3.4 7.9 -0.1 11.2 5.1 5.2 14.5 1.6 14.5 -5.4 0 -4.9 -1.7 -4.4 -5 1.4 -1.7 3 -3.3 5.5 -3.4 5.5 -0.2 0 -1.5 -1.8 -3 -4 -2 -3 -2.3 -4 -1.1 -4 0.8 0 1.9 1 2.6 2.2 1.1 2 1.3 1.8 4.7 -3.7 l3.5 -5.8 1.9 2.3 c2.9 3.6 2.4 9.6 -1.1 13.1 -2.4 2.4 -3.8 2.9 -7.6 2.9 -3.8 0 -5.2 -0.5 -7.6 -2.9z"/>
 </g>
 <g fill="#58c7d9">
  <path d="M4.8 18.3 c-5.7 -3.6 -6.3 -10 -1.4 -14.9 3.5 -3.5 8.3 -4.5 11.5 -2.5 1 0.7 0 0.9 -3.1 0.8 -3.7 -0.2 -5.2 0.3 -7.2 2.2 -6.8 6.4 0.1 17 9.1 14 4.4 -1.4 6.8 -6.4 5.2 -10.6 l-1 -2.8 -3.1 5 c-4.2 7 -4.3 7 -6.8 3.5 -2.6 -3.6 -1.9 -5.4 0.8 -2 l1.9 2.3 3.1 -5.2 c1.8 -2.8 3.6 -5.1 4 -5.1 1.1 0 3.2 4.6 3.2 7 0 7.8 -9.3 12.6 -16.2 8.3z"/>
 </g>
 <g fill="#19b2cb">
  <path d="M7 19.3 c-2.8 -1.1 -5.9 -4.6 -6.5 -7.4 -1.5 -6.9 7.9 -14.6 13.5 -10.9 1.1 0.7 0.6 0.8 -1.6 0.4 -6.9 -1.3 -13 5.4 -10.4 11.6 3.3 7.9 14.9 7.5 17.4 -0.7 0.8 -2.4 -0.2 -7.3 -1.4 -7.3 -0.4 0 -2.3 2.5 -4.1 5.5 -3.6 6 -4.1 5.9 -7 0 -0.9 -1.7 -0.7 -1.7 1 0.3 1 1.2 2.2 2.2 2.5 2.2 0.3 0 2 -2.3 3.7 -5.1 2.9 -4.6 3.3 -4.9 4.8 -3.5 2.5 2.6 2 9.1 -1 12.1 -2.5 2.5 -8 4 -10.9 2.8z"/>
 </g>
</svg>